<svg xmlns="http://www.w3.org/2000/svg" xmlns:xlink="http://www.w3.org/1999/xlink" viewBox="0 0 590 182.3"><linearGradient id="a"><stop offset=".178" stop-color="#009fd4"/><stop offset="1" stop-color="#47b756"/></linearGradient><linearGradient id="b" gradientTransform="matrix(1 0 0 -1 0 183.135)" gradientUnits="userSpaceOnUse" x1="500.627" x2="589.979" xlink:href="#a" y1="183.114" y2="93.762"/><linearGradient id="c" gradientTransform="matrix(1 0 0 -1 0 183.135)" gradientUnits="userSpaceOnUse" x1="375.476" x2="464.827" xlink:href="#a" y1="183.114" y2="93.762"/><linearGradient id="d" gradientTransform="matrix(1 0 0 -1 0 183.135)" gradientUnits="userSpaceOnUse" x1="250.324" x2="339.676" xlink:href="#a" y1="183.114" y2="93.762"/><clipPath id="e"><path d="M314.1 111.3c-.4-.5-1-.9-1.7-1.1h.1c-2.1-.7-7.8-1.1-13.5-1.2h-7.6c-5.4.1-10.8.5-12.8 1.2h.1c-.7.2-1.3.6-1.7 1.1-1.5 2.1-1.7 11.2-1.7 13.9v.7c0 2.8.1 11.9 1.7 13.9.4.5 1 .9 1.7 1.1h-.1c2.5.8 10.3 1.2 16.9 1.2h.1c6.6 0 14.4-.4 16.9-1.2h-.1c.7-.2 1.3-.6 1.7-1.1 1.6-2 1.7-11.2 1.7-13.9v-.7c0-2.7-.1-11.9-1.7-13.9zm-1.5 14.6c0 6.7-.6 11-1 11.9-1.5.5-7.6 1.1-15.9 1.1h-.1c-2.5 0-4.8-.1-6.9-.1l-.9-.9c.1-.4.2-.7.3-1.1s.2-.7.2-1.1c.6-.1 1.2-.4 1.8-.6 0-.4 0-.7-.1-1.1-.6-.2-1.3-.3-1.9-.4-.1-.4-.2-.7-.3-1.1-.2-.3-.3-.7-.5-1 .4-.5.8-1 1.1-1.6-.2-.3-.5-.6-.7-.8-.6.2-1.2.5-1.8.8-.3-.2-.6-.5-.9-.6-.3-.2-.7-.4-1-.5.1-.6.1-1.3 0-1.9-.3-.1-.7-.2-1-.2-.4.6-.7 1.1-1 1.7h-1.1c-.4.1-.7.1-1.1.2-.3-.6-.7-1.1-1.1-1.6h-.1v-2c0-6.7.6-11 1-11.9 1.5-.5 7.6-1.1 15.9-1.1h.2c8.3 0 14.4.5 15.9 1.1.4.9 1 5.2 1 11.9z"/></clipPath><linearGradient id="f" gradientTransform="matrix(1 0 0 -1 0 183.135)" gradientUnits="userSpaceOnUse" x1="150.854" x2="153.243" xlink:href="#a" y1="82.01" y2="49.879"/><linearGradient id="g" gradientTransform="matrix(1 0 0 -1 0 183.135)" gradientUnits="userSpaceOnUse" x1="439.766" x2="437.114" xlink:href="#a" y1="83.197" y2="49.482"/><path d="M44.7 89.4C20.1 89.4 0 69.3 0 44.7S20.1 0 44.7 0s44.7 20.1 44.7 44.7-20.1 44.7-44.7 44.7zm0-87.4C21.2 2 2 21.2 2 44.7s19.2 42.7 42.7 42.7 42.7-19.2 42.7-42.7S68.2 2 44.7 2z" fill="#172e55"/><path d="M28 49.5c-2.6 0-4.6-1.9-4.6-4.6s2.1-4.6 4.6-4.6c2 0 3.1 1.1 3.8 2.2l-1.6.8c-.4-.7-1.2-1.3-2.1-1.3-1.5 0-2.7 1.2-2.7 2.9s1.2 2.9 2.7 2.9c1 0 1.8-.6 2.1-1.3l1.6.8c-.7 1.2-1.8 2.2-3.8 2.2zm12.1-.1h-5.6v-8.8h1.9v7.2h3.7zm4.8 0H43v-8.8h1.9zm7.6.1c-2.6 0-4.6-1.9-4.6-4.6s2.1-4.6 4.6-4.6c2 0 3.1 1.1 3.8 2.2l-1.6.8c-.4-.7-1.2-1.3-2.1-1.3-1.5 0-2.7 1.2-2.7 2.9s1.2 2.9 2.7 2.9c1 0 1.8-.6 2.1-1.3l1.6.8c-.7 1.2-1.8 2.2-3.8 2.2zm14-.1h-2.3l-2.7-3.5-.7.8v2.7h-1.9v-8.8h1.9v4l3.1-4h2.3l-3.5 4.1z" fill="#172e55"/><path d="M545.3 89.4c-24.6 0-44.7-20.1-44.7-44.7S520.7 0 545.3 0 590 20.1 590 44.7s-20.1 44.7-44.7 44.7zm0-87.4c-23.5 0-42.7 19.2-42.7 42.7s19.2 42.7 42.7 42.7S588 68.2 588 44.7 568.8 2 545.3 2z" fill="url(#b)"/><path d="M518.5 49.4h-2.2l-1.7-3.2h-1.4v3.2h-1.9v-8.8h4.1c1.8 0 3 1.2 3 2.9 0 1.6-1 2.4-1.9 2.6zm-1.9-6c0-.7-.6-1.2-1.3-1.2h-2v2.4h2c.7 0 1.3-.5 1.3-1.2zm11.1 6h-6.3v-8.8h6.3v1.6h-4.4v1.9h4.3v1.6h-4.3v2.1h4.4zm7.9 0h-2.4l-3.4-8.8h2.1l2.5 6.8 2.4-6.8h2.1zm12.1 0h-6.3v-8.8h6.3v1.6h-4.4v1.9h4.3v1.6h-4.3v2.1h4.4zm11 0h-1.8l-4.2-5.9v5.9h-1.9v-8.8h1.9l4.1 5.7v-5.7h1.9zm3.3-3.6v-5.3h1.9v5.3c0 1.2.7 2.1 2.1 2.1s2-.8 2-2.1v-5.3h1.9v5.3c0 2.2-1.3 3.7-3.9 3.7-2.7 0-4-1.5-4-3.7zm17.5 3.6h-6.3v-8.8h6.3v1.6h-4.4v1.9h4.3v1.6h-4.3v2.1h4.4z" fill="#172e55"/><path d="M420.2 89.4c-24.6 0-44.7-20.1-44.7-44.7S395.5 0 420.2 0c24.6 0 44.7 20.1 44.7 44.7s-20.1 44.7-44.7 44.7zm0-87.4c-23.5 0-42.7 19.2-42.7 42.7s19.2 42.7 42.7 42.7 42.7-19.2 42.7-42.7S443.7 2 420.2 2z" fill="url(#c)"/><path d="M405.7 45c0-2.7 1.9-4.6 4.6-4.6s4.6 1.9 4.6 4.6-1.9 4.6-4.6 4.6c-2.7-.1-4.6-2-4.6-4.6zm7.3 0c0-1.7-1.1-2.9-2.7-2.9s-2.7 1.2-2.7 2.9c0 1.6 1 2.9 2.7 2.9 1.6 0 2.7-1.3 2.7-2.9zm6.7 4.4h-1.9v-8.8h4.1c1.9 0 3 1.3 3 2.9 0 1.5-1.1 2.8-3 2.8h-2.3v3.1zm3.3-6c0-.7-.6-1.2-1.3-1.2h-2v2.4h2c.7 0 1.3-.5 1.3-1.2zm6.6 6h-1.9v-8.8h4.1c1.9 0 3 1.3 3 2.9 0 1.5-1.1 2.8-3 2.8h-2.3v3.1zm3.3-6c0-.7-.6-1.2-1.3-1.2h-2v2.4h2c.7 0 1.3-.5 1.3-1.2z" fill="#172e55"/><path d="M295 89.4c-24.6 0-44.7-20.1-44.7-44.7S270.4 0 295 0s44.7 20.1 44.7 44.7-20.1 44.7-44.7 44.7zM295 2c-23.5 0-42.7 19.2-42.7 42.7s19.2 42.7 42.7 42.7 42.7-19.2 42.7-42.7S318.5 2 295 2z" fill="url(#d)"/><path d="M281.2 48.1l1-1.4c.6.6 1.6 1.2 2.8 1.2 1 0 1.5-.5 1.5-1 0-.7-.8-.9-1.8-1.1-1.4-.3-3.3-.7-3.3-2.7 0-1.5 1.3-2.7 3.4-2.7 1.4 0 2.6.4 3.4 1.2l-1 1.4c-.7-.7-1.7-1-2.5-1s-1.3.4-1.3.9c0 .6.7.8 1.8 1 1.5.3 3.3.8 3.3 2.7 0 1.6-1.2 2.8-3.5 2.8-1.8.1-3-.4-3.8-1.3zm18.9-3.1c0 1.2-.4 2.3-1.2 3.1l.6.8-1.3 1.1-.7-.8c-.6.3-1.3.5-2.1.5-2.7 0-4.6-1.9-4.6-4.6s1.9-4.6 4.6-4.6c2.8-.1 4.7 1.8 4.7 4.5zm-4.6 2.9c.3 0 .6-.1.9-.2l-1-1.2 1.3-1.1 1 1.2c.3-.5.5-1 .5-1.7 0-1.7-1.1-2.9-2.7-2.9s-2.7 1.2-2.7 2.9 1.1 3 2.7 3zm13.2 1.5H303v-8.8h1.9v7.2h3.7v1.6zm-138.9 40c-24.6 0-44.7-20.1-44.7-44.7S145.2 0 169.8 0s44.7 20.1 44.7 44.7-20 44.7-44.7 44.7zm0-87.4c-23.5 0-42.7 19.2-42.7 42.7s19.2 42.7 42.7 42.7 42.7-19.2 42.7-42.7S193.4 2 169.8 2z" fill="#172e55"/><path d="M157.3 49.4h-5.6v-8.8h1.9v7.2h3.7zm9.2 0h-6.3v-8.8h6.3v1.6h-4.4v1.9h4.3v1.6h-4.3v2.1h4.4zm11.3 0h-2.1l-.6-1.5h-4l-.6 1.5h-2.1l3.4-8.8h2.4zm-3.1-3.2l-1.5-4.1-1.5 4.1zm9 3.2h-3.5v-8.8h3.5c2.8 0 4.7 1.8 4.7 4.4s-1.9 4.4-4.7 4.4zm-1.6-7.2v5.5h1.6c1.8 0 2.8-1.3 2.8-2.8 0-1.6-1-2.8-2.8-2.8h-1.6z" fill="#172e55"/><path d="M100.7 62l-1.1-1.2 13.9-14-13.9-14.7 1.2-1.2 15 16zm126 0l-1.1-1.2 13.9-14-13.9-14.7 1.2-1.2 15 16zm124.4 0l-1.1-1.2 13.9-14-14-14.7 1.2-1.2 15.1 16zm125.2 0l-1.2-1.2 14-14-14-14.7 1.2-1.2 15.1 16z" fill="#e1e0e1"/><path d="M174.7 162.1H43.2v-17.5h1.7v15.8H173v-15.8h1.7zM51.5 178.3c0-2.3 1.7-4 4-4s4 1.7 4 4-1.7 4-4 4-4-1.7-4-4zm6.4 0c0-1.4-.9-2.5-2.4-2.5-1.4 0-2.3 1.1-2.3 2.5s.9 2.5 2.3 2.5c1.5 0 2.4-1.1 2.4-2.5zm7.4 3.9h-1.7v-6.3h-2.3v-1.4h6.2v1.4h-2.3v6.3zm11.6 0h-1.7V179h-3.7v3.2H70v-7.7h1.6v3h3.7v-3H77v7.7zm8.4 0h-5.5v-7.7h5.5v1.4h-3.8v1.7h3.7v1.4h-3.7v1.8h3.8zm9 0h-1.9l-1.5-2.8h-1.2v2.8H88v-7.7h3.6c1.6 0 2.6 1.1 2.6 2.5s-.9 2.1-1.7 2.3zm-1.7-5.3c0-.6-.5-1.1-1.2-1.1h-1.7v2.1h1.7c.7.1 1.2-.3 1.2-1zm15.8 5.3h-1.8l-.5-1.3h-3.5l-.5 1.3h-1.8l3-7.7h2.1zm-2.7-2.8l-1.3-3.5-1.3 3.5zm4.1-1.1c0-2.4 1.9-4 4.1-4 1.6 0 2.6.8 3.2 1.7l-1.4.7c-.4-.5-1-1-1.8-1-1.4 0-2.4 1.1-2.4 2.5 0 1.5 1 2.5 2.4 2.5.7 0 1.3-.3 1.7-.6v-.9h-2.1v-1.4h3.7v3c-.8.9-1.9 1.5-3.3 1.5-2.3 0-4.1-1.6-4.1-4zm15.6 3.9h-5.5v-7.7h5.5v1.4h-3.8v1.7h3.7v1.4h-3.7v1.8h3.8zm9.6 0h-1.6l-3.7-5.2v5.2H128v-7.7h1.7l3.6 5v-5h1.6v7.7zm6.6.1c-2.3 0-4.1-1.6-4.1-4s1.8-4 4.1-4c1.8 0 2.8.9 3.3 1.9l-1.4.7c-.3-.6-1-1.1-1.9-1.1-1.3 0-2.4 1.1-2.4 2.5 0 1.5 1 2.5 2.4 2.5.9 0 1.6-.5 1.9-1.1l1.4.7c-.6 1-1.6 1.9-3.3 1.9zm7.3-.1h-1.6v-7.7h1.6zm8.4 0h-5.5v-7.7h5.5v1.4h-3.8v1.7h3.7v1.4h-3.7v1.8h3.8zm2.1-1.1l.9-1.3c.5.6 1.4 1 2.5 1 .9 0 1.3-.4 1.3-.9 0-.6-.7-.8-1.6-1-1.3-.3-2.9-.6-2.9-2.4 0-1.3 1.1-2.3 2.9-2.3 1.2 0 2.2.4 3 1.1l-.9 1.2c-.6-.6-1.5-.8-2.2-.8s-1.1.3-1.1.8.6.7 1.5.9c1.3.3 2.9.7 2.9 2.4 0 1.4-1 2.5-3.1 2.5-1.4 0-2.4-.5-3.2-1.2z" fill="#172e55"/><path clip-path="url(#e)" d="M285.9 112.3l-7.3 5.9v-5.9z" fill="#009fd4"/><path clip-path="url(#e)" d="M286.2 112.3l-7.6 6.2v-.3l7.3-5.9z" fill="#009fd4"/><path clip-path="url(#e)" d="M286.5 112.3l-7.9 6.4v-.2l7.6-6.2z" fill="#009fd3"/><path clip-path="url(#e)" d="M286.8 112.3l-8.2 6.7v-.3l7.9-6.4z" fill="#009fd3"/><path clip-path="url(#e)" d="M287.1 112.3l-8.5 6.9v-.2l8.2-6.7z" fill="#019fd2"/><path clip-path="url(#e)" d="M287.4 112.3l-8.8 7.1v-.2l8.5-6.9z" fill="#029fd2"/><path clip-path="url(#e)" d="M287.7 112.3l-9.1 7.4v-.3l8.8-7.1z" fill="#039fd1"/><path clip-path="url(#e)" d="M288 112.3l-9.4 7.6v-.2l9.1-7.4z" fill="#049fd1"/><path clip-path="url(#e)" d="M288.3 112.3l-9.7 7.9v-.3l9.4-7.6z" fill="#05a0d0"/><path clip-path="url(#e)" d="M288.6 112.3l-10 8.1v-.2l9.7-7.9z" fill="#07a0d0"/><path clip-path="url(#e)" d="M288.9 112.3l-10.3 8.4v-.3l10-8.1z" fill="#08a0cf"/><path clip-path="url(#e)" d="M289.2 112.3l-10.6 8.6v-.2l10.3-8.4z" fill="#09a0cf"/><path clip-path="url(#e)" d="M289.5 112.3l-10.9 8.8v-.2l10.6-8.6z" fill="#0aa0ce"/><path clip-path="url(#e)" d="M289.7 112.3l-11.1 9.1v-.3l10.9-8.8z" fill="#0ba0ce"/><path clip-path="url(#e)" d="M290 112.3l-11.4 9.3v-.2l11.1-9.1z" fill="#0ca0cd"/><path clip-path="url(#e)" d="M290.3 112.3l-11.7 9.6v-.3l11.4-9.3z" fill="#0da0cd"/><path clip-path="url(#e)" d="M290.6 112.3l-12 9.8v-.2l11.7-9.6z" fill="#0ea0cc"/><path clip-path="url(#e)" d="M290.9 112.3l-12.3 10.1v-.3l12-9.8z" fill="#0fa1cc"/><path clip-path="url(#e)" d="M291.2 112.3l-12.6 10.3v-.2l12.3-10.1z" fill="#10a1cb"/><path clip-path="url(#e)" d="M291.5 112.3l-12.9 10.5v-.2l12.6-10.3z" fill="#11a1cb"/><path clip-path="url(#e)" d="M291.8 112.3l-13.2 10.8v-.3l12.9-10.5z" fill="#11a1ca"/><path clip-path="url(#e)" d="M292.1 112.3l-13.5 11v-.2l13.2-10.8z" fill="#12a1ca"/><path clip-path="url(#e)" d="M292.4 112.3l-13.8 11.3v-.3l13.5-11z" fill="#13a1c9"/><path clip-path="url(#e)" d="M292.7 112.3l-14.1 11.5v-.2l13.8-11.3z" fill="#14a1c9"/><path clip-path="url(#e)" d="M293 112.3l-14.4 11.8v-.3l14.1-11.5z" fill="#14a1c8"/><path clip-path="url(#e)" d="M293.3 112.3l-14.7 12v-.2l14.4-11.8z" fill="#15a1c8"/><path clip-path="url(#e)" d="M293.6 112.3l-15 12.2v-.2l14.7-12z" fill="#16a2c7"/><path clip-path="url(#e)" d="M293.9 112.3l-15.3 12.5v-.3l15-12.2z" fill="#16a2c7"/><path clip-path="url(#e)" d="M294.2 112.3L278.6 125v-.2l15.3-12.5z" fill="#17a2c6"/><path clip-path="url(#e)" d="M294.5 112.3l-15.9 13v-.3l15.6-12.7z" fill="#18a2c6"/><path clip-path="url(#e)" d="M294.8 112.3l-16.2 13.2v-.2l15.9-13z" fill="#18a2c5"/><path clip-path="url(#e)" d="M295.1 112.3l-16.5 13.5v-.3l16.2-13.2z" fill="#19a2c5"/><path clip-path="url(#e)" d="M295.4 112.3L278.6 126v-.2l16.5-13.5z" fill="#19a2c4"/><path clip-path="url(#e)" d="M295.7 112.3l-17.1 13.9v-.2l16.8-13.7z" fill="#1aa2c4"/><path clip-path="url(#e)" d="M296 112.3l-17.4 14.2v-.3l17.1-13.9z" fill="#1aa2c3"/><path clip-path="url(#e)" d="M296.3 112.3l-17.7 14.4v-.2l17.4-14.2z" fill="#1ba3c3"/><path clip-path="url(#e)" d="M296.6 112.3l-18 14.7v-.3l17.7-14.4z" fill="#1ba3c2"/><path clip-path="url(#e)" d="M296.9 112.3l-18.3 14.9v-.2l18-14.7z" fill="#1ca3c2"/><path clip-path="url(#e)" d="M297.2 112.3l-18.6 15.2v-.3l18.3-14.9z" fill="#1ca3c1"/><path clip-path="url(#e)" d="M297.5 112.3l-18.9 15.4v-.2l18.6-15.2z" fill="#1da3c1"/><path clip-path="url(#e)" d="M297.7 112.3l-19.1 15.6v-.2l18.9-15.4z" fill="#1da3c0"/><path clip-path="url(#e)" d="M298 112.3l-19.4 15.9v-.3l19.1-15.6z" fill="#1ea3c0"/><path clip-path="url(#e)" d="M298.3 112.3l-19.7 16.1v-.2l19.4-15.9z" fill="#1ea3bf"/><path clip-path="url(#e)" d="M298.6 112.3l-20 16.4v-.3l19.7-16.1z" fill="#1fa3bf"/><path clip-path="url(#e)" d="M298.9 112.3l-20.3 16.6v-.2l20-16.4z" fill="#1fa3be"/><path clip-path="url(#e)" d="M299.2 112.3l-20.6 16.9v-.3l20.3-16.6z" fill="#20a4be"/><path clip-path="url(#e)" d="M299.5 112.3l-20.9 17.1v-.2l20.6-16.9zm.3 0l-21.2 17.3v-.2l20.9-17.1z" fill="#20a4bd"/><path clip-path="url(#e)" d="M300.1 112.3l-21.5 17.6v-.3l21.2-17.3z" fill="#21a4bc"/><path clip-path="url(#e)" d="M300.4 112.3l-21.8 17.8v-.2l21.5-17.6z" fill="#21a4bc"/><path clip-path="url(#e)" d="M300.7 112.3l-22.1 18.1v-.3l21.8-17.8zm.3 0l-22.3 18.3-.1-.1v-.1l22.1-18.1z" fill="#22a4bb"/><path clip-path="url(#e)" d="M301.3 112.3l-22.5 18.4-.1-.1 22.3-18.3z" fill="#22a4ba"/><path clip-path="url(#e)" d="M301.6 112.3l-22.7 18.5-.1-.1 22.5-18.4z" fill="#23a4ba"/><path clip-path="url(#e)" d="M301.9 112.3L279.1 131l-.2-.2 22.7-18.5z" fill="#23a5b9"/><path clip-path="url(#e)" d="M302.2 112.3l-23 18.8-.1-.1 22.8-18.7z" fill="#23a5b9"/><path clip-path="url(#e)" d="M302.5 112.3l-23.2 19-.1-.2 23-18.8zm.3 0l-23.4 19.1-.1-.1 23.2-19z" fill="#24a5b8"/><path clip-path="url(#e)" d="M303.1 112.3l-23.6 19.3-.1-.2 23.4-19.1z" fill="#24a5b7"/><path clip-path="url(#e)" d="M303.4 112.3l-23.8 19.4-.1-.1 23.6-19.3z" fill="#25a5b7"/><path clip-path="url(#e)" d="M303.7 112.3l-23.9 19.6-.2-.2 23.8-19.4z" fill="#25a5b6"/><path clip-path="url(#e)" d="M304 112.3L279.9 132l-.1-.1 23.9-19.6z" fill="#26a5b6"/><path clip-path="url(#e)" d="M304.3 112.3L280 132.2l-.1-.2 24.1-19.7zm.3 0l-24.5 20-.1-.1 24.3-19.9z" fill="#26a5b5"/><path clip-path="url(#e)" d="M304.9 112.3l-24.7 20.1-.1-.1 24.5-20zm.3 0l-24.8 20.3-.2-.2 24.7-20.1z" fill="#27a6b4"/><path clip-path="url(#e)" d="M305.4 112.3l-24.9 20.4-.1-.1 24.8-20.3z" fill="#27a6b3"/><path clip-path="url(#e)" d="M305.7 112.3l-25.1 20.6-.1-.2 24.9-20.4z" fill="#28a6b3"/><path clip-path="url(#e)" d="M306 112.3L280.7 133l-.1-.1 25.1-20.6z" fill="#28a6b2"/><path clip-path="url(#e)" d="M306.3 112.3l-25.5 20.9-.1-.2 25.3-20.7z" fill="#28a6b2"/><path clip-path="url(#e)" d="M306.6 112.3l-25.6 21-.2-.1 25.5-20.9z" fill="#29a6b1"/><path clip-path="url(#e)" d="M306.9 112.3l-25.8 21.2-.1-.2 25.6-21z" fill="#29a6b1"/><path clip-path="url(#e)" d="M307.2 112.3l-26 21.3-.1-.1 25.8-21.2z" fill="#29a6b0"/><path clip-path="url(#e)" d="M307.5 112.3l-26.2 21.5-.1-.2 26-21.3z" fill="#29a6af"/><path clip-path="url(#e)" d="M307.8 112.3l-26.4 21.6-.1-.1 26.2-21.5z" fill="#2aa6af"/><path clip-path="url(#e)" d="M308.1 112.3L281.6 134l-.2-.1 26.4-21.6z" fill="#2aa7ae"/><path clip-path="url(#e)" d="M308.4 112.3l-26.7 21.9-.1-.2 26.5-21.7z" fill="#2aa7ae"/><path clip-path="url(#e)" d="M308.7 112.3l-26.9 22-.1-.1 26.7-21.9z" fill="#2ba7ad"/><path clip-path="url(#e)" d="M309 112.3l-27.1 22.2-.1-.2 26.9-22z" fill="#2ba7ad"/><path clip-path="url(#e)" d="M309.3 112.3L282 134.6l-.1-.1 27.1-22.2zm.3 0l-27.5 22.5-.1-.2 27.3-22.3z" fill="#2ba7ac"/><path clip-path="url(#e)" d="M309.9 112.3l-27.6 22.6-.2-.1 27.5-22.5zm.3 0l-27.8 22.8-.1-.2 27.6-22.6z" fill="#2ca7ab"/><path clip-path="url(#e)" d="M310.5 112.3l-28 22.9-.1-.1 27.8-22.8z" fill="#2ca7aa"/><path clip-path="url(#e)" d="M310.8 112.3l-28.2 23.1-.1-.2 28-22.9z" fill="#2ca7a9"/><path clip-path="url(#e)" d="M311.1 112.3l-28.4 23.2-.1-.1 28.2-23.1z" fill="#2da8a9"/><path clip-path="url(#e)" d="M311.4 112.3l-28.5 23.3-.2-.1 28.4-23.2zm.3 0L283 135.8l-.1-.2 28.5-23.3z" fill="#2da8a8"/><path clip-path="url(#e)" d="M312 112.3l-28.9 23.6-.1-.1 28.7-23.5z" fill="#2ea8a7"/><path clip-path="url(#e)" d="M312.3 112.3l-29.1 23.8-.1-.2 28.9-23.6z" fill="#2ea8a7"/><path clip-path="url(#e)" d="M312.6 112.3l-29.3 23.9-.1-.1 29.1-23.8zm0 .2l-29.1 23.9-.2-.2 29.3-23.9z" fill="#2ea8a6"/><path clip-path="url(#e)" d="M312.6 112.7l-29 23.8-.1-.1 29.1-23.9z" fill="#2fa8a5"/><path clip-path="url(#e)" d="M312.6 113l-28.9 23.7-.1-.2 29-23.8z" fill="#2fa8a5"/><path clip-path="url(#e)" d="M312.6 113.2l-28.8 23.6-.1-.1 28.9-23.7z" fill="#2fa8a4"/><path clip-path="url(#e)" d="M312.6 113.5l-28.7 23.4-.1-.1 28.8-23.6z" fill="#2fa8a3"/><path clip-path="url(#e)" d="M312.6 113.7l-28.5 23.4-.2-.2 28.7-23.4z" fill="#30a9a3"/><path clip-path="url(#e)" d="M312.6 113.9l-28.4 23.3-.1-.1 28.5-23.4z" fill="#30a9a2"/><path clip-path="url(#e)" d="M312.6 114.2l-28.3 23.2-.1-.2 28.4-23.3z" fill="#30a9a2"/><path clip-path="url(#e)" d="M312.6 114.4l-28.2 23.1-.1-.1 28.3-23.2z" fill="#30a9a1"/><path clip-path="url(#e)" d="M312.6 114.7l-28.1 23-.1-.2 28.2-23.1z" fill="#31a9a1"/><path clip-path="url(#e)" d="M312.6 114.9l-27.9 22.9-.2-.1 28.1-23z" fill="#31a9a0"/><path clip-path="url(#e)" d="M312.6 115.2L284.8 138l-.1-.2 27.9-22.9z" fill="#31a9a0"/><path clip-path="url(#e)" d="M312.6 115.4l-27.7 22.7-.1-.1 27.8-22.8z" fill="#31a99f"/><path clip-path="url(#e)" d="M312.6 115.7L285 138.3l-.1-.2 27.7-22.7z" fill="#32a99f"/><path clip-path="url(#e)" d="M312.6 115.9l-27.5 22.5-.1-.1 27.6-22.6z" fill="#32a99e"/><path clip-path="url(#e)" d="M312.6 116.1l-27.4 22.4-.1-.1 27.5-22.5z" fill="#32a99d"/><path clip-path="url(#e)" d="M312.6 116.4l-27.2 22.3-.2-.2 27.4-22.4z" fill="#32aa9d"/><path clip-path="url(#e)" d="M312.6 116.6l-27.1 22.2-.1-.1 27.2-22.3zm0 .3l-26.9 22h-.1l-.1-.1 27.1-22.2z" fill="#33aa9c"/><path clip-path="url(#e)" d="M312.6 117.1L286 138.9h-.3l26.9-22zm0 .3l-26.3 21.5h-.3l26.6-21.8z" fill="#33aa9b"/><path clip-path="url(#e)" d="M312.6 117.6l-26 21.3h-.3l26.3-21.5z" fill="#33aa9a"/><path clip-path="url(#e)" d="M312.6 117.8l-25.7 21.1h-.3l26-21.3z" fill="#34aa9a"/><path clip-path="url(#e)" d="M312.6 118.1l-25.5 20.8h-.2l25.7-21.1zm0 .2l-25.2 20.6h-.3l25.5-20.8z" fill="#34aa99"/><path clip-path="url(#e)" d="M312.6 118.6l-24.9 20.3h-.3l25.2-20.6z" fill="#34aa98"/><path clip-path="url(#e)" d="M312.6 118.8L288 138.9h-.3l24.9-20.3z" fill="#34ab97"/><path clip-path="url(#e)" d="M312.6 119.1l-24.3 19.8h-.3l24.6-20.1z" fill="#35ab97"/><path clip-path="url(#e)" d="M312.6 119.3l-24 19.6h-.3l24.3-19.8zm0 .2l-23.7 19.4h-.3l24-19.6z" fill="#35ab96"/><path clip-path="url(#e)" d="M312.6 119.8l-23.4 19.1h-.3l23.7-19.4z" fill="#35ab95"/><path clip-path="url(#e)" d="M312.6 120l-23.1 18.9h-.3l23.4-19.1z" fill="#36ab95"/><path clip-path="url(#e)" d="M312.6 120.3l-22.8 18.6h-.3l23.1-18.9zm0 .2l-22.5 18.4h-.3l22.8-18.6z" fill="#36ab94"/><path clip-path="url(#e)" d="M312.6 120.8l-22.2 18.1h-.3l22.5-18.4zm0 .2l-21.9 17.9h-.3l22.2-18.1z" fill="#36ab93"/><path clip-path="url(#e)" d="M312.6 121.2L291 138.9h-.3l21.9-17.9z" fill="#37ac92"/><path clip-path="url(#e)" d="M312.6 121.5l-21.3 17.4h-.3l21.6-17.7z" fill="#37ac92"/><path clip-path="url(#e)" d="M312.6 121.7l-21 17.2h-.3l21.3-17.4z" fill="#37ac91"/><path clip-path="url(#e)" d="M312.6 122l-20.7 16.9h-.3l21-17.2z" fill="#37ac91"/><path clip-path="url(#e)" d="M312.6 122.2l-20.4 16.7h-.3l20.7-16.9z" fill="#37ac90"/><path clip-path="url(#e)" d="M312.6 122.5l-20.1 16.4h-.3l20.4-16.7z" fill="#38ac8f"/><path clip-path="url(#e)" d="M312.6 122.7l-19.8 16.2h-.3l20.1-16.4z" fill="#38ac8f"/><path clip-path="url(#e)" d="M312.6 122.9l-19.5 16h-.3l19.8-16.2z" fill="#38ac8e"/><path clip-path="url(#e)" d="M312.6 123.2l-19.2 15.7h-.3l19.5-16z" fill="#38ac8e"/><path clip-path="url(#e)" d="M312.6 123.4l-18.9 15.5h-.3l19.2-15.7z" fill="#39ac8d"/><path clip-path="url(#e)" d="M312.6 123.7L294 138.9h-.3l18.9-15.5z" fill="#39ad8d"/><path clip-path="url(#e)" d="M312.6 123.9l-18.3 15h-.3l18.6-15.2z" fill="#39ad8c"/><path clip-path="url(#e)" d="M312.6 124.2l-18 14.7h-.3l18.3-15z" fill="#39ad8c"/><path clip-path="url(#e)" d="M312.6 124.4l-17.7 14.5h-.3l18-14.7z" fill="#39ad8b"/><path clip-path="url(#e)" d="M312.6 124.6l-17.5 14.3h-.2l17.7-14.5z" fill="#39ad8b"/><path clip-path="url(#e)" d="M312.6 124.9l-17.2 14h-.3l17.5-14.3z" fill="#3aad8a"/><path clip-path="url(#e)" d="M312.6 125.1l-16.9 13.8h-.3l17.2-14z" fill="#3aad89"/><path clip-path="url(#e)" d="M312.6 125.4L296 138.9h-.3l16.9-13.8z" fill="#3aad89"/><path clip-path="url(#e)" d="M312.6 125.6l-16.3 13.3h-.3l16.6-13.5zm0 .3l-16 13h-.3l16.3-13.3z" fill="#3aad88"/><path clip-path="url(#e)" d="M312.6 126.1l-15.7 12.8h-.3l16-13z" fill="#3bad87"/><path clip-path="url(#e)" d="M312.6 126.3l-15.4 12.6h-.3l15.7-12.8z" fill="#3bae87"/><path clip-path="url(#e)" d="M312.6 126.6l-15.1 12.3h-.3l15.4-12.6z" fill="#3bae86"/><path clip-path="url(#e)" d="M312.6 126.8l-14.8 12.1h-.3l15.1-12.3zm0 .3l-14.5 11.8h-.3l14.8-12.1z" fill="#3bae85"/><path clip-path="url(#e)" d="M312.6 127.3l-14.2 11.6h-.3l14.5-11.8z" fill="#3bae84"/><path clip-path="url(#e)" d="M312.6 127.6l-13.9 11.3h-.3l14.2-11.6z" fill="#3cae84"/><path clip-path="url(#e)" d="M312.6 127.8L299 138.9h-.3l13.9-11.3zm0 .2l-13.3 10.9h-.3l13.6-11.1z" fill="#3cae83"/><path clip-path="url(#e)" d="M312.6 128.3l-13 10.6h-.3l13.3-10.9z" fill="#3cae82"/><path clip-path="url(#e)" d="M312.6 128.5l-12.7 10.4h-.3l13-10.6z" fill="#3cae81"/><path clip-path="url(#e)" d="M312.6 128.8l-12.4 10.1h-.3l12.7-10.4z" fill="#3daf81"/><path clip-path="url(#e)" d="M312.6 129l-12.1 9.9h-.3l12.4-10.1z" fill="#3daf80"/><path clip-path="url(#e)" d="M312.6 129.3l-11.8 9.6h-.3l12.1-9.9z" fill="#3daf80"/><path clip-path="url(#e)" d="M312.6 129.5l-11.5 9.4h-.3l11.8-9.6z" fill="#3daf7f"/><path clip-path="url(#e)" d="M312.6 129.7l-11.2 9.2h-.3l11.5-9.4z" fill="#3daf7f"/><path clip-path="url(#e)" d="M312.6 130l-10.9 8.9h-.3l11.2-9.2z" fill="#3eaf7e"/><path clip-path="url(#e)" d="M312.6 130.2l-10.6 8.7h-.3l10.9-8.9zm0 .3l-10.3 8.4h-.3l10.6-8.7z" fill="#3eaf7d"/><path clip-path="url(#e)" d="M312.6 130.7l-10 8.2h-.3l10.3-8.4z" fill="#3eaf7c"/><path clip-path="url(#e)" d="M312.6 131l-9.7 7.9h-.3l10-8.2z" fill="#3eaf7b"/><path clip-path="url(#e)" d="M312.6 131.2l-9.5 7.7h-.2l9.7-7.9z" fill="#3fb07b"/><path clip-path="url(#e)" d="M312.6 131.4l-9.2 7.5h-.3l9.5-7.7z" fill="#3fb07a"/><path clip-path="url(#e)" d="M312.6 131.7l-8.9 7.2h-.3l9.2-7.5z" fill="#3fb07a"/><path clip-path="url(#e)" d="M312.6 131.9l-8.6 7h-.3l8.9-7.2z" fill="#3fb079"/><path clip-path="url(#e)" d="M312.6 132.2l-8.3 6.7h-.3l8.6-7z" fill="#3fb078"/><path clip-path="url(#e)" d="M312.6 132.4l-8 6.5h-.3l8.3-6.7z" fill="#40b078"/><path clip-path="url(#e)" d="M312.6 132.7l-7.7 6.2h-.3l8-6.5z" fill="#40b077"/><path clip-path="url(#e)" d="M312.6 132.9l-7.4 6h-.3l7.7-6.2z" fill="#40b076"/><path clip-path="url(#e)" d="M312.6 133.1l-7.1 5.8h-.3l7.4-6z" fill="#40b076"/><path clip-path="url(#e)" d="M312.6 133.4l-6.8 5.5h-.3l7.1-5.8z" fill="#40b075"/><path clip-path="url(#e)" d="M312.6 133.6l-6.5 5.3h-.3l6.8-5.5z" fill="#40b074"/><path clip-path="url(#e)" d="M312.6 133.9l-6.2 5h-.3l6.5-5.3z" fill="#41b174"/><path clip-path="url(#e)" d="M312.6 134.1l-5.9 4.8h-.3l6.2-5z" fill="#41b173"/><path clip-path="url(#e)" d="M312.6 134.4l-5.6 4.5h-.3l5.9-4.8z" fill="#41b172"/><path clip-path="url(#e)" d="M312.6 134.6l-5.3 4.3h-.3l5.6-4.5z" fill="#41b171"/><path clip-path="url(#e)" d="M312.6 134.8l-5 4.1h-.3l5.3-4.3z" fill="#41b171"/><path clip-path="url(#e)" d="M312.6 135.1l-4.7 3.8h-.3l5-4.1z" fill="#41b170"/><path clip-path="url(#e)" d="M312.6 135.3l-4.4 3.6h-.3l4.7-3.8z" fill="#42b16f"/><path clip-path="url(#e)" d="M312.6 135.6l-4.1 3.3h-.3l4.4-3.6z" fill="#42b16f"/><path clip-path="url(#e)" d="M312.6 135.8l-3.8 3.1h-.3l4.1-3.3z" fill="#42b16e"/><path clip-path="url(#e)" d="M312.6 136.1l-3.5 2.8h-.3l3.8-3.1z" fill="#42b26d"/><path clip-path="url(#e)" d="M312.6 136.3l-3.2 2.6h-.3l3.5-2.8z" fill="#42b26d"/><path clip-path="url(#e)" d="M312.6 136.5l-2.9 2.4h-.3l3.2-2.6z" fill="#43b26c"/><path clip-path="url(#e)" d="M312.6 136.8l-2.6 2.1h-.3l2.9-2.4z" fill="#43b26b"/><path clip-path="url(#e)" d="M312.6 137l-2.3 1.9h-.3l2.6-2.1z" fill="#43b26b"/><path clip-path="url(#e)" d="M312.6 137.3l-2 1.6h-.3l2.3-1.9z" fill="#43b26a"/><path clip-path="url(#e)" d="M312.6 137.5l-1.7 1.4h-.3l2-1.6z" fill="#43b269"/><path clip-path="url(#e)" d="M312.6 137.8l-1.5 1.1h-.2l1.7-1.4z" fill="#43b269"/><path clip-path="url(#e)" d="M312.6 138l-1.2.9h-.3l1.5-1.1z" fill="#44b268"/><path clip-path="url(#e)" d="M312.6 138.2l-.9.7h-.3l1.2-.9z" fill="#44b367"/><path clip-path="url(#e)" d="M312.6 138.5l-.6.4h-.3l.9-.7z" fill="#44b366"/><path clip-path="url(#e)" d="M312.6 138.7l-.3.2h-.3l.6-.4z" fill="#44b366"/><path clip-path="url(#e)" d="M312.3 138.9l.3-.2v.2z" fill="#44b365"/><path clip-path="url(#e)" d="M289.8 109l-14.4 11.8V109z" fill="#009fd4"/><path clip-path="url(#e)" d="M290.1 109l-14.7 12.1v-.3l14.4-11.8z" fill="#009fd4"/><path clip-path="url(#e)" d="M290.4 109l-15 12.3v-.2l14.7-12.1z" fill="#009fd3"/><path clip-path="url(#e)" d="M290.7 109l-15.3 12.6v-.3l15-12.3z" fill="#009fd3"/><path clip-path="url(#e)" d="M291 109l-15.6 12.8v-.2l15.3-12.6z" fill="#019fd2"/><path clip-path="url(#e)" d="M291.3 109l-15.9 13.1v-.3L291 109z" fill="#029fd2"/><path clip-path="url(#e)" d="M291.6 109l-16.2 13.3v-.2l15.9-13.1z" fill="#039fd1"/><path clip-path="url(#e)" d="M291.9 109l-16.5 13.5v-.2l16.2-13.3z" fill="#049fd1"/><path clip-path="url(#e)" d="M292.2 109l-16.8 13.8v-.3l16.5-13.5z" fill="#05a0d0"/><path clip-path="url(#e)" d="M292.5 109l-17.1 14v-.2l16.8-13.8z" fill="#07a0d0"/><path clip-path="url(#e)" d="M292.8 109l-17.4 14.3v-.3l17.1-14z" fill="#08a0cf"/><path clip-path="url(#e)" d="M293.1 109l-17.7 14.5v-.2l17.4-14.3z" fill="#09a0cf"/><path clip-path="url(#e)" d="M293.4 109l-18 14.8v-.3l17.7-14.5z" fill="#0aa0ce"/><path clip-path="url(#e)" d="M293.7 109l-18.3 15v-.2l18-14.8z" fill="#0ba0ce"/><path clip-path="url(#e)" d="M294 109l-18.6 15.3v-.3l18.3-15z" fill="#0ca0cd"/><path clip-path="url(#e)" d="M294.3 109l-18.9 15.5v-.2L294 109z" fill="#0da0cd"/><path clip-path="url(#e)" d="M294.6 109l-19.2 15.7v-.2l18.9-15.5z" fill="#0ea0cc"/><path clip-path="url(#e)" d="M294.9 109l-19.5 16v-.3l19.2-15.7z" fill="#0fa1cc"/><path clip-path="url(#e)" d="M295.2 109l-19.8 16.2v-.2l19.5-16z" fill="#10a1cb"/><path clip-path="url(#e)" d="M295.5 109l-20.1 16.5v-.3l19.8-16.2z" fill="#11a1cb"/><path clip-path="url(#e)" d="M295.8 109l-20.4 16.7v-.2l20.1-16.5z" fill="#11a1ca"/><path clip-path="url(#e)" d="M296 109l-20.6 17v-.3l20.4-16.7z" fill="#12a1ca"/><path clip-path="url(#e)" d="M296.3 109l-20.9 17.2v-.2l20.6-17z" fill="#13a1c9"/><path clip-path="url(#e)" d="M296.6 109l-21.2 17.4v-.2l20.9-17.2z" fill="#14a1c9"/><path clip-path="url(#e)" d="M296.9 109l-21.5 17.7v-.3l21.2-17.4z" fill="#14a1c8"/><path clip-path="url(#e)" d="M297.2 109l-21.8 17.9v-.2l21.5-17.7z" fill="#15a1c8"/><path clip-path="url(#e)" d="M297.5 109l-22.1 18.2v-.3l21.8-17.9zm.3 0l-22.4 18.4v-.2l22.1-18.2z" fill="#16a2c7"/><path clip-path="url(#e)" d="M298.1 109l-22.7 18.7v-.3l22.4-18.4z" fill="#17a2c6"/><path clip-path="url(#e)" d="M298.4 109l-23 18.9v-.2l22.7-18.7z" fill="#18a2c6"/><path clip-path="url(#e)" d="M298.7 109l-23.3 19.1v-.2l23-18.9z" fill="#18a2c5"/><path clip-path="url(#e)" d="M299 109l-23.6 19.4v-.3l23.3-19.1z" fill="#19a2c5"/><path clip-path="url(#e)" d="M299.3 109l-23.9 19.6v-.2L299 109z" fill="#19a2c4"/><path clip-path="url(#e)" d="M299.6 109l-24.2 19.9v-.3l23.9-19.6z" fill="#1aa2c4"/><path clip-path="url(#e)" d="M299.9 109l-24.5 20.1v-.2l24.2-19.9z" fill="#1aa2c3"/><path clip-path="url(#e)" d="M300.2 109l-24.8 20.4v-.3l24.5-20.1z" fill="#1ba3c3"/><path clip-path="url(#e)" d="M300.5 109l-25.1 20.6v-.2l24.8-20.4z" fill="#1ba3c2"/><path clip-path="url(#e)" d="M300.8 109l-25.4 20.8v-.2l25.1-20.6z" fill="#1ca3c2"/><path clip-path="url(#e)" d="M301.1 109l-25.7 21.1v-.3l25.4-20.8z" fill="#1ca3c1"/><path clip-path="url(#e)" d="M301.4 109l-26 21.3v-.2l25.7-21.1z" fill="#1da3c1"/><path clip-path="url(#e)" d="M301.7 109l-26.3 21.6v-.3l26-21.3z" fill="#1da3c0"/><path clip-path="url(#e)" d="M302 109l-26.6 21.8v-.2l26.3-21.6z" fill="#1ea3c0"/><path clip-path="url(#e)" d="M302.3 109l-26.9 22.1v-.3L302 109z" fill="#1ea3bf"/><path clip-path="url(#e)" d="M302.6 109l-27.2 22.3v-.2l26.9-22.1z" fill="#1fa3bf"/><path clip-path="url(#e)" d="M302.9 109l-27.5 22.5v-.2l27.2-22.3z" fill="#1fa3be"/><path clip-path="url(#e)" d="M303.2 109l-27.8 22.8v-.3l27.5-22.5z" fill="#20a4be"/><path clip-path="url(#e)" d="M303.5 109l-28.1 23v-.2l27.8-22.8zm.3 0l-28.4 23.3v-.3l28.1-23z" fill="#20a4bd"/><path clip-path="url(#e)" d="M304 109l-28.6 23.5v-.2l28.4-23.3zm.3 0l-28.9 23.8v-.3L304 109z" fill="#21a4bc"/><path clip-path="url(#e)" d="M304.6 109l-29.2 24v-.2l28.9-23.8z" fill="#22a4bb"/><path clip-path="url(#e)" d="M304.9 109l-29.5 24.2v-.2l29.2-24z" fill="#22a4bb"/><path clip-path="url(#e)" d="M305.2 109l-29.8 24.5v-.3l29.5-24.2z" fill="#22a4ba"/><path clip-path="url(#e)" d="M305.5 109l-30.1 24.7v-.2l29.8-24.5z" fill="#23a4ba"/><path clip-path="url(#e)" d="M305.8 109l-30.4 25v-.3l30.1-24.7z" fill="#23a5b9"/><path clip-path="url(#e)" d="M306.1 109l-30.7 25.2v-.2l30.4-25z" fill="#23a5b9"/><path clip-path="url(#e)" d="M306.4 109l-31 25.5v-.3l30.7-25.2z" fill="#24a5b8"/><path clip-path="url(#e)" d="M306.7 109l-31.3 25.7v-.2l31-25.5z" fill="#24a5b8"/><path clip-path="url(#e)" d="M307 109l-31.6 25.9v-.2l31.3-25.7z" fill="#24a5b7"/><path clip-path="url(#e)" d="M307.3 109l-31.9 26.2v-.3L307 109z" fill="#25a5b7"/><path clip-path="url(#e)" d="M307.6 109l-32.2 26.4v-.2l31.9-26.2z" fill="#25a5b6"/><path clip-path="url(#e)" d="M307.9 109l-32.5 26.7v-.3l32.2-26.4z" fill="#26a5b6"/><path clip-path="url(#e)" d="M308.2 109l-32.8 26.9v-.2l32.5-26.7z" fill="#26a5b5"/><path clip-path="url(#e)" d="M308.5 109l-33.1 27.2v-.3l32.8-26.9z" fill="#26a5b5"/><path clip-path="url(#e)" d="M308.8 109l-33.4 27.4v-.2l33.1-27.2z" fill="#27a6b4"/><path clip-path="url(#e)" d="M309.1 109l-33.7 27.6v-.2l33.4-27.4z" fill="#27a6b4"/><path clip-path="url(#e)" d="M309.4 109l-34 27.9v-.3l33.7-27.6z" fill="#27a6b3"/><path clip-path="url(#e)" d="M309.7 109l-34.3 28.1v-.2l34-27.9z" fill="#28a6b3"/><path clip-path="url(#e)" d="M310 109l-34.6 28.4v-.3l34.3-28.1zm.3 0l-34.9 28.6v-.2L310 109z" fill="#28a6b2"/><path clip-path="url(#e)" d="M310.6 109l-35.2 28.9v-.3l34.9-28.6z" fill="#29a6b1"/><path clip-path="url(#e)" d="M310.9 109l-35.5 29.1v-.2l35.2-28.9z" fill="#29a6b1"/><path clip-path="url(#e)" d="M311.2 109l-35.8 29.3v-.2l35.5-29.1z" fill="#29a6b0"/><path clip-path="url(#e)" d="M311.5 109l-36.1 29.6v-.3l35.8-29.3z" fill="#29a6af"/><path clip-path="url(#e)" d="M311.8 109l-36.4 29.8v-.2l36.1-29.6z" fill="#2aa6af"/><path clip-path="url(#e)" d="M312 109l-36.6 30.1v-.3l36.4-29.8zm.3 0l-36.9 30.3v-.2L312 109z" fill="#2aa7ae"/><path clip-path="url(#e)" d="M312.6 109l-37.2 30.6v-.3l36.9-30.3z" fill="#2ba7ad"/><path clip-path="url(#e)" d="M312.9 109l-37.5 30.8v-.2l37.2-30.6z" fill="#2ba7ad"/><path clip-path="url(#e)" d="M313.2 109l-37.8 31v-.2l37.5-30.8z" fill="#2ba7ac"/><path clip-path="url(#e)" d="M313.5 109l-38.1 31.3v-.3l37.8-31z" fill="#2ba7ac"/><path clip-path="url(#e)" d="M313.8 109l-38.4 31.5v-.2l38.1-31.3z" fill="#2ca7ab"/><path clip-path="url(#e)" d="M314.1 109l-38.7 31.8v-.3l38.4-31.5z" fill="#2ca7ab"/><path clip-path="url(#e)" d="M314.4 109l-39 32v-.2l38.7-31.8z" fill="#2ca7aa"/><path clip-path="url(#e)" d="M314.7 109l-39.2 32.2-.1-.2 39-32z" fill="#2ca7a9"/><path clip-path="url(#e)" d="M314.9 109v.1l-39.2 32.2-.2-.1 39.2-32.2z" fill="#2da8a9"/><path clip-path="url(#e)" d="M270 125.2h50.8v.2H270z" fill="#2da8a8" transform="rotate(-39.351 295.35 125.267)"/><path clip-path="url(#e)" d="M270.1 125.3h50.8v.2h-50.8z" fill="#2da8a8" transform="rotate(-39.351 295.468 125.412)"/><path clip-path="url(#e)" d="M270.2 125.5H321v.2h-50.8z" fill="#2ea8a7" transform="rotate(-39.351 295.588 125.557)"/><path clip-path="url(#e)" d="M270.3 125.6h50.8v.2h-50.8z" fill="#2ea8a7" transform="rotate(-39.351 295.707 125.702)"/><path clip-path="url(#e)" d="M270.4 125.8h50.8v.2h-50.8z" fill="#2ea8a6" transform="rotate(-39.351 295.826 125.848)"/><path clip-path="url(#e)" d="M315.5 109.8l.2.2-39.3 32.2-.1-.2z" fill="#2ea8a6"/><path clip-path="url(#e)" d="M315.7 110l.1.1-39.1 32.1h-.3z" fill="#2fa8a5"/><path clip-path="url(#e)" d="M315.8 110.1v.2L277 142.2h-.3z" fill="#2fa8a5"/><path clip-path="url(#e)" d="M315.8 110.6l-38.5 31.6h-.3l38.8-31.9z" fill="#2fa8a4"/><path clip-path="url(#e)" d="M315.8 110.8l-38.2 31.4h-.3l38.5-31.6z" fill="#2fa8a3"/><path clip-path="url(#e)" d="M315.8 111.1l-37.9 31.1h-.3l38.2-31.4z" fill="#30a9a3"/><path clip-path="url(#e)" d="M315.8 111.3l-37.6 30.9h-.3l37.9-31.1z" fill="#30a9a2"/><path clip-path="url(#e)" d="M315.8 111.5l-37.3 30.7h-.3l37.6-30.9z" fill="#30a9a2"/><path clip-path="url(#e)" d="M315.8 111.8l-37 30.4h-.3l37.3-30.7z" fill="#30a9a1"/><path clip-path="url(#e)" d="M315.8 112l-36.7 30.2h-.3l37-30.4z" fill="#31a9a1"/><path clip-path="url(#e)" d="M315.8 112.3l-36.4 29.9h-.3l36.7-30.2z" fill="#31a9a0"/><path clip-path="url(#e)" d="M315.8 112.5l-36.1 29.7h-.3l36.4-29.9z" fill="#31a9a0"/><path clip-path="url(#e)" d="M315.8 112.8L280 142.2h-.3l36.1-29.7z" fill="#31a99f"/><path clip-path="url(#e)" d="M315.8 113l-35.5 29.2h-.3l35.8-29.4z" fill="#32a99f"/><path clip-path="url(#e)" d="M315.8 113.2l-35.2 29h-.3l35.5-29.2z" fill="#32a99e"/><path clip-path="url(#e)" d="M315.8 113.5l-35 28.7h-.2l35.2-29z" fill="#32a99d"/><path clip-path="url(#e)" d="M315.8 113.7l-34.7 28.5h-.3l35-28.7z" fill="#32aa9d"/><path clip-path="url(#e)" d="M315.8 114l-34.4 28.2h-.3l34.7-28.5z" fill="#33aa9c"/><path clip-path="url(#e)" d="M315.8 114.2l-34.1 28h-.3l34.4-28.2z" fill="#33aa9c"/><path clip-path="url(#e)" d="M315.8 114.5L282 142.2h-.3l34.1-28z" fill="#33aa9b"/><path clip-path="url(#e)" d="M315.8 114.7l-33.5 27.5h-.3l33.8-27.7z" fill="#33aa9b"/><path clip-path="url(#e)" d="M315.8 114.9l-33.2 27.3h-.3l33.5-27.5z" fill="#33aa9a"/><path clip-path="url(#e)" d="M315.8 115.2l-32.9 27h-.3l33.2-27.3z" fill="#34aa9a"/><path clip-path="url(#e)" d="M315.8 115.4l-32.6 26.8h-.3l32.9-27z" fill="#34aa99"/><path clip-path="url(#e)" d="M315.8 115.7l-32.3 26.5h-.3l32.6-26.8z" fill="#34aa99"/><path clip-path="url(#e)" d="M315.8 115.9l-32 26.3h-.3l32.3-26.5z" fill="#34aa98"/><path clip-path="url(#e)" d="M315.8 116.2l-31.7 26h-.3l32-26.3z" fill="#34ab97"/><path clip-path="url(#e)" d="M315.8 116.4l-31.4 25.8h-.3l31.7-26z" fill="#35ab97"/><path clip-path="url(#e)" d="M315.8 116.6l-31.1 25.6h-.3l31.4-25.8z" fill="#35ab96"/><path clip-path="url(#e)" d="M315.8 116.9L285 142.2h-.3l31.1-25.6z" fill="#35ab96"/><path clip-path="url(#e)" d="M315.8 117.1l-30.5 25.1h-.3l30.8-25.3z" fill="#35ab95"/><path clip-path="url(#e)" d="M315.8 117.4l-30.2 24.8h-.3l30.5-25.1z" fill="#36ab95"/><path clip-path="url(#e)" d="M315.8 117.6l-29.9 24.6h-.3l30.2-24.8z" fill="#36ab94"/><path clip-path="url(#e)" d="M315.8 117.9l-29.6 24.3h-.3l29.9-24.6z" fill="#36ab94"/><path clip-path="url(#e)" d="M315.8 118.1l-29.3 24.1h-.3l29.6-24.3z" fill="#36ab93"/><path clip-path="url(#e)" d="M315.8 118.3l-29 23.9h-.3l29.3-24.1z" fill="#36ab93"/><path clip-path="url(#e)" d="M315.8 118.6l-28.7 23.6h-.3l29-23.9z" fill="#37ac92"/><path clip-path="url(#e)" d="M315.8 118.8l-28.4 23.4h-.3l28.7-23.6z" fill="#37ac92"/><path clip-path="url(#e)" d="M315.8 119.1l-28.1 23.1h-.3l28.4-23.4z" fill="#37ac91"/><path clip-path="url(#e)" d="M315.8 119.3L288 142.2h-.3l28.1-23.1z" fill="#37ac91"/><path clip-path="url(#e)" d="M315.8 119.6l-27.5 22.6h-.3l27.8-22.9z" fill="#37ac90"/><path clip-path="url(#e)" d="M315.8 119.8l-27.2 22.4h-.3l27.5-22.6z" fill="#38ac8f"/><path clip-path="url(#e)" d="M315.8 120l-27 22.2h-.2l27.2-22.4z" fill="#38ac8f"/><path clip-path="url(#e)" d="M315.8 120.3l-26.7 21.9h-.3l27-22.2z" fill="#38ac8e"/><path clip-path="url(#e)" d="M315.8 120.5l-26.4 21.7h-.3l26.7-21.9z" fill="#38ac8e"/><path clip-path="url(#e)" d="M315.8 120.8l-26.1 21.4h-.3l26.4-21.7z" fill="#39ac8d"/><path clip-path="url(#e)" d="M315.8 121L290 142.2h-.3l26.1-21.4z" fill="#39ad8d"/><path clip-path="url(#e)" d="M315.8 121.3l-25.5 20.9h-.3l25.8-21.2z" fill="#39ad8c"/><path clip-path="url(#e)" d="M315.8 121.5l-25.2 20.7h-.3l25.5-20.9z" fill="#39ad8c"/><path clip-path="url(#e)" d="M315.8 121.7l-24.9 20.5h-.3l25.2-20.7z" fill="#39ad8b"/><path clip-path="url(#e)" d="M315.8 122l-24.6 20.2h-.3l24.9-20.5z" fill="#39ad8b"/><path clip-path="url(#e)" d="M315.8 122.2l-24.3 20h-.3l24.6-20.2z" fill="#3aad8a"/><path clip-path="url(#e)" d="M315.8 122.5l-24 19.7h-.3l24.3-20z" fill="#3aad89"/><path clip-path="url(#e)" d="M315.8 122.7l-23.7 19.5h-.3l24-19.7z" fill="#3aad89"/><path clip-path="url(#e)" d="M315.8 123l-23.4 19.2h-.3l23.7-19.5z" fill="#3aad88"/><path clip-path="url(#e)" d="M315.8 123.2l-23.1 19h-.3l23.4-19.2z" fill="#3aad88"/><path clip-path="url(#e)" d="M315.8 123.4L293 142.2h-.3l23.1-19z" fill="#3bad87"/><path clip-path="url(#e)" d="M315.8 123.7l-22.5 18.5h-.3l22.8-18.8z" fill="#3bae87"/><path clip-path="url(#e)" d="M315.8 123.9l-22.2 18.3h-.3l22.5-18.5z" fill="#3bae86"/><path clip-path="url(#e)" d="M315.8 124.2l-21.9 18h-.3l22.2-18.3z" fill="#3bae85"/><path clip-path="url(#e)" d="M315.8 124.4l-21.6 17.8h-.3l21.9-18z" fill="#3bae85"/><path clip-path="url(#e)" d="M315.8 124.7l-21.3 17.5h-.3l21.6-17.8z" fill="#3bae84"/><path clip-path="url(#e)" d="M315.8 124.9l-21 17.3h-.3l21.3-17.5z" fill="#3cae84"/><path clip-path="url(#e)" d="M315.8 125.1l-20.7 17.1h-.3l21-17.3zm0 .3l-20.4 16.8h-.3l20.7-17.1z" fill="#3cae83"/><path clip-path="url(#e)" d="M315.8 125.6l-20.1 16.6h-.3l20.4-16.8z" fill="#3cae82"/><path clip-path="url(#e)" d="M315.8 125.9L296 142.2h-.3l20.1-16.6z" fill="#3cae81"/><path clip-path="url(#e)" d="M315.8 126.1l-19.5 16.1h-.3l19.8-16.3z" fill="#3daf81"/><path clip-path="url(#e)" d="M315.8 126.4l-19.3 15.8h-.2l19.5-16.1z" fill="#3daf80"/><path clip-path="url(#e)" d="M315.8 126.6l-19 15.6h-.3l19.3-15.8z" fill="#3daf80"/><path clip-path="url(#e)" d="M315.8 126.8l-18.7 15.4h-.3l19-15.6z" fill="#3daf7f"/><path clip-path="url(#e)" d="M315.8 127.1l-18.4 15.1h-.3l18.7-15.4z" fill="#3daf7f"/><path clip-path="url(#e)" d="M315.8 127.3l-18.1 14.9h-.3l18.4-15.1z" fill="#3eaf7e"/><path clip-path="url(#e)" d="M315.8 127.6L298 142.2h-.3l18.1-14.9z" fill="#3eaf7d"/><path clip-path="url(#e)" d="M315.8 127.8l-17.5 14.4h-.3l17.8-14.6z" fill="#3eaf7d"/><path clip-path="url(#e)" d="M315.8 128.1l-17.2 14.1h-.3l17.5-14.4z" fill="#3eaf7c"/><path clip-path="url(#e)" d="M315.8 128.3l-16.9 13.9h-.3l17.2-14.1z" fill="#3eaf7b"/><path clip-path="url(#e)" d="M315.8 128.5l-16.6 13.7h-.3l16.9-13.9z" fill="#3fb07b"/><path clip-path="url(#e)" d="M315.8 128.8l-16.3 13.4h-.3l16.6-13.7z" fill="#3fb07a"/><path clip-path="url(#e)" d="M315.8 129l-16 13.2h-.3l16.3-13.4z" fill="#3fb07a"/><path clip-path="url(#e)" d="M315.8 129.3l-15.7 12.9h-.3l16-13.2z" fill="#3fb079"/><path clip-path="url(#e)" d="M315.8 129.5l-15.4 12.7h-.3l15.7-12.9z" fill="#3fb078"/><path clip-path="url(#e)" d="M315.8 129.8l-15.1 12.4h-.3l15.4-12.7z" fill="#40b078"/><path clip-path="url(#e)" d="M315.8 130L301 142.2h-.3l15.1-12.4z" fill="#40b077"/><path clip-path="url(#e)" d="M315.8 130.2l-14.5 12h-.3l14.8-12.2z" fill="#40b076"/><path clip-path="url(#e)" d="M315.8 130.5l-14.2 11.7h-.3l14.5-12z" fill="#40b076"/><path clip-path="url(#e)" d="M315.8 130.7l-13.9 11.5h-.3l14.2-11.7z" fill="#40b075"/><path clip-path="url(#e)" d="M315.8 131l-13.6 11.2h-.3l13.9-11.5z" fill="#40b074"/><path clip-path="url(#e)" d="M315.8 131.2l-13.3 11h-.3l13.6-11.2z" fill="#41b174"/><path clip-path="url(#e)" d="M315.8 131.5l-13 10.7h-.3l13.3-11z" fill="#41b173"/><path clip-path="url(#e)" d="M315.8 131.7l-12.7 10.5h-.3l13-10.7z" fill="#41b172"/><path clip-path="url(#e)" d="M315.8 132l-12.4 10.2h-.3l12.7-10.5z" fill="#41b171"/><path clip-path="url(#e)" d="M315.8 132.2l-12.1 10h-.3l12.4-10.2z" fill="#41b171"/><path clip-path="url(#e)" d="M315.8 132.4l-11.8 9.8h-.3l12.1-10z" fill="#41b170"/><path clip-path="url(#e)" d="M315.8 132.7l-11.5 9.5h-.3l11.8-9.8zm0 .2l-11.3 9.3h-.2l11.5-9.5z" fill="#42b16f"/><path clip-path="url(#e)" d="M315.8 133.2l-11 9h-.3l11.3-9.3z" fill="#42b16e"/><path clip-path="url(#e)" d="M315.8 133.4l-10.7 8.8h-.3l11-9z" fill="#42b26d"/><path clip-path="url(#e)" d="M315.8 133.7l-10.4 8.5h-.3l10.7-8.8z" fill="#42b26d"/><path clip-path="url(#e)" d="M315.8 133.9l-10.1 8.3h-.3l10.4-8.5z" fill="#43b26c"/><path clip-path="url(#e)" d="M315.8 134.1l-9.8 8.1h-.3l10.1-8.3zm0 .3l-9.5 7.8h-.3l9.8-8.1z" fill="#43b26b"/><path clip-path="url(#e)" d="M315.8 134.6l-9.2 7.6h-.3l9.5-7.8z" fill="#43b26a"/><path clip-path="url(#e)" d="M315.8 134.9l-8.9 7.3h-.3l9.2-7.6z" fill="#43b269"/><path clip-path="url(#e)" d="M315.8 135.1l-8.6 7.1h-.3l8.9-7.3z" fill="#43b269"/><path clip-path="url(#e)" d="M315.8 135.4l-8.3 6.8h-.3l8.6-7.1z" fill="#44b268"/><path clip-path="url(#e)" d="M315.8 135.6l-8 6.6h-.3l8.3-6.8z" fill="#44b367"/><path clip-path="url(#e)" d="M315.8 135.8l-7.7 6.4h-.3l8-6.6z" fill="#44b366"/><path clip-path="url(#e)" d="M315.8 136.1l-7.4 6.1h-.3l7.7-6.4z" fill="#44b366"/><path clip-path="url(#e)" d="M315.8 136.3l-7.1 5.9h-.3l7.4-6.1z" fill="#44b365"/><path clip-path="url(#e)" d="M315.8 136.6l-6.8 5.6h-.3l7.1-5.9z" fill="#44b364"/><path clip-path="url(#e)" d="M315.8 136.8l-6.5 5.4h-.3l6.8-5.6z" fill="#45b364"/><path clip-path="url(#e)" d="M315.8 137.1l-6.2 5.1h-.3l6.5-5.4z" fill="#45b363"/><path clip-path="url(#e)" d="M315.8 137.3l-5.9 4.9h-.3l6.2-5.1z" fill="#45b362"/><path clip-path="url(#e)" d="M315.8 137.5l-5.6 4.7h-.3l5.9-4.9z" fill="#45b462"/><path clip-path="url(#e)" d="M315.8 137.8l-5.3 4.4h-.3l5.6-4.7z" fill="#45b461"/><path clip-path="url(#e)" d="M315.8 138l-5 4.2h-.3l5.3-4.4zm0 .3l-4.7 3.9h-.3l5-4.2z" fill="#45b460"/><path clip-path="url(#e)" d="M315.8 138.5l-4.4 3.7h-.3l4.7-3.9z" fill="#45b45f"/><path clip-path="url(#e)" d="M315.8 138.8l-4.1 3.4h-.3l4.4-3.7z" fill="#45b45e"/><path clip-path="url(#e)" d="M315.8 139l-3.8 3.2h-.3l4.1-3.4z" fill="#46b45e"/><path clip-path="url(#e)" d="M315.8 139.2l-3.5 3h-.3l3.8-3.2z" fill="#46b55d"/><path clip-path="url(#e)" d="M315.8 139.5l-3.3 2.7h-.2l3.5-3z" fill="#46b55c"/><path clip-path="url(#e)" d="M315.8 139.7l-3 2.5h-.3l3.3-2.7z" fill="#46b55c"/><path clip-path="url(#e)" d="M315.8 140l-2.7 2.2h-.3l3-2.5z" fill="#46b55b"/><path clip-path="url(#e)" d="M315.8 140.2l-2.4 2h-.3l2.7-2.2z" fill="#46b55a"/><path clip-path="url(#e)" d="M315.8 140.5l-2.1 1.7h-.3l2.4-2z" fill="#46b55a"/><path clip-path="url(#e)" d="M315.8 140.7l-1.8 1.5h-.3l2.1-1.7z" fill="#46b659"/><path clip-path="url(#e)" d="M315.8 140.9l-1.5 1.3h-.3l1.8-1.5z" fill="#46b658"/><path clip-path="url(#e)" d="M315.8 141.2l-1.2 1h-.3l1.5-1.3z" fill="#46b658"/><path clip-path="url(#e)" d="M315.8 141.4l-.9.8h-.3l1.2-1z" fill="#46b657"/><path clip-path="url(#e)" d="M315.8 141.7l-.6.5h-.3l.9-.8z" fill="#47b657"/><path clip-path="url(#e)" d="M315.8 141.9l-.3.3h-.3l.6-.5z" fill="#47b756"/><path clip-path="url(#e)" d="M315.5 142.2l.3-.3v.3z" fill="#47b756"/><path d="M261.7 126H43.6v-17h1.7v15.4h216.4z" fill="url(#f)"/><path d="M546 126H329.5v-1.6h214.9v-16.2h1.6z" fill="url(#g)"/></svg>